# xmcd
#
# Track frame offsets:
#	150
#	17734
#	28290
#	46845
#	58237
#	74551
#	93744
#	111720
#	127676
#	150057
#	165783
#	183507
#	199078
#	217806
#
# Disc length: 3120 seconds
#
# Revision: 1
# Processed by: cddbd v1.5PL3 Copyright (c) Steve Scherf et al.
# Submitted via: CDmax 2.0
#
DISCID=bb0c2e0e
DTITLE=Fiddlers' Sons - Eagles Fly
DYEAR=2004
DGENRE=Country
TTITLE0=Song for Alex
TTITLE1=Fiddle Set
TTITLE2=Gaspereaux
TTITLE3=Annie Beaton
TTITLE4=Carolina
TTITLE5=Remember Bill
TTITLE6=Old Grey House
TTITLE7=Flat River Maiden
TTITLE8=Maggie's Collection
TTITLE9=Flute Tunes
TTITLE10=Leave Him Be
TTITLE11=Fourteen Years
TTITLE12=My Hometown
TTITLE13=What the Summer Months Will Bring
EXTD=
EXTT0=
EXTT1=
EXTT2=
EXTT3=
EXTT4=
EXTT5=
EXTT6=
EXTT7=
EXTT8=
EXTT9=
EXTT10=
EXTT11=
EXTT12=
EXTT13=
PLAYORDER=
